<?xml version="1.0" encoding="utf-8"?>
<!-- Generator: Adobe Illustrator 19.0.0, SVG Export Plug-In . SVG Version: 6.00 Build 0)  -->
<svg version="1.1" id="Laag_1" xmlns="http://www.w3.org/2000/svg" xmlns:xlink="http://www.w3.org/1999/xlink" x="0px" y="0px"
	 viewBox="-58 59.3 640 640" style="enable-background:new -58 59.3 640 640;" xml:space="preserve">
<style type="text/css">
	.st0{fill:#2B8C5B;}
	.st1{fill:#A7D391;}
	.st2{display:none;}
	.st3{display:inline;fill:#FFFFFF;}
	.st4{fill:#FFFFFF;}
	.st5{font-family:'Lato-Black';}
	.st6{font-size:120px;}
	.st7{display:none;fill:none;stroke:#FFFFFF;stroke-width:8;stroke-miterlimit:10;}
	.st8{fill:none;stroke:#FFFFFF;stroke-width:18;stroke-miterlimit:10;}
</style>
<path class="st0" d="M262,113.5C116.4,113.5-3.8,233.8-3.8,379.3c0,145.6,120.3,265.8,265.8,265.8s265.8-120.3,265.8-265.8
	C527.8,233.8,407.6,113.5,262,113.5z"/>
<path class="st1" d="M582,379.3c0,72-24.8,144.1-70.1,200.4l-29.3-23.3c40.5-50.6,61.9-112.6,61.9-177.1
	c0-155.3-127.3-282.5-282.5-282.5S-20.5,224.1-20.5,379.3S106.8,661.8,262,661.8c49.5,0,97.9-13.1,140.6-37.9l18.8,32.6
	C373,684.7,317.9,699.3,262,699.3c-175.9,0-320-144.1-320-320s144.1-320,320-320S582,203.5,582,379.3z"/>
<g>
	<g>
		<path class="st1" d="M402.6,624l18.8,32.6C373,684.7,317.9,699.3,262,699.3v-37.5C311.5,661.8,359.9,648.7,402.6,624z"/>
		<path class="st1" d="M582,379.3c0,72-24.8,144.1-70.1,200.4l-29.3-23.3c40.5-50.6,61.9-112.6,61.9-177.1
			c0-155.3-127.3-282.5-282.5-282.5V59.3C437.9,59.3,582,203.5,582,379.3z"/>
	</g>
</g>
<path class="st1" d="M501.1,509c13.9,0.9,27.3,7.2,37.2,18.7l0,0c9.5,11.1,14.2,25.3,13.2,40.1c-1,14.8-7.5,28.3-18.4,38
	c-31.8,28.4-98.1,21.1-100.8,20.8c-2.3-0.3-4-2.3-4-4.7c0.1-2.9,1.7-70.9,33.5-99.3C473.1,512.6,487.3,508.1,501.1,509z"/>
<g class="st2">
	<path class="st3" d="M468.6,590.2l1.5,29.3c-3,3.8-7.2,1.8-7.4-1.4l-1.3-25.8C461.2,589.2,465.2,586.7,468.6,590.2z"/>
	<path class="st3" d="M439.1,589.9l27.5-1.4c3.8,3,1.8,7.2-1.4,7.4l-27.5,1.4C433.9,594.2,435.9,590,439.1,589.9z"/>
	<path class="st3" d="M490.6,565.8l1.5,29.3c-3,3.8-7.2,1.8-7.4-1.4l-1.3-25.8C483.2,564.7,487.2,562.3,490.6,565.8z"/>
	<path class="st3" d="M461.1,565.4l27.5-1.4c3.8,3,1.8,7.2-1.4,7.4l-27.5,1.4C455.9,569.8,457.9,565.6,461.1,565.4z"/>
	<path class="st3" d="M522.2,524.8c0.9,0,1.9,0.3,2.6,0.9c1.5,1.3,1.6,3.7,0.3,5.2l-80.5,89.4c-4.9,0.6-6.4-3.8-4.3-6.2l79.4-88.1
		C520.4,525.3,521.3,524.9,522.2,524.8z"/>
	<path class="st3" d="M522.2,524.8c-0.9,0-1.8,0.5-2.5,1.2l-79.4,88.1c-1.4,1.5-1.2,3.8,0.3,5.2c0,0,0,0,0,0l84.3-93.6
		C524.1,525.1,523.2,524.8,522.2,524.8z"/>
</g>
<g>
	<text transform="matrix(1 0 0 1 19 418.6667)" class="st4 st5 st6">ARATOR</text>
</g>
<path class="st7" d="M520.6,530.4c3-15.9,6.2-32.3,15.2-45.8c5.6-8.5,13.4-15.5,18.4-24.3c8.2-14.3,8.6-31.6,8.9-48
	c0.3-25.6,0.6-51.7-6.6-76.3c-3.4-11.6-8.4-22.7-10.8-34.5c-4.9-24.9,2-53-11.3-74.6c-10.2-16.6-29.6-24.7-45.3-36.4
	c-32.5-24.4-52.4-67.5-91.6-78.3c-7.4-2.1-15.2-2.8-22.5-5.4c-10.4-3.7-19.1-11.1-29-16.1c-22-11-48-9.3-72.6-7.2
	c-18.7,1.5-37.4,3.1-56.1,4.6c-22.5,1.8-45.2,3.7-66.6,10.6c-22.5,7.2-42.9,19.8-63.1,32.2c-29.5,18.2-60,37.2-79.3,66.1
	c-4.9,7.4-9,15.2-12.8,23.2c-22.6,46.4-38.9,96.6-41.2,148.2S-35.3,473-4.8,514.6c6.4,8.8,13.7,17.2,17.5,27.3
	c2.5,6.6,3.4,13.8,6.5,20.1c10.6,21.1,39.6,23,59.2,36.2c28.9,19.6,38,65.2,72,73.3c16.4,3.9,34.1-2.9,50.3,1.7
	c6.1,1.7,11.6,4.9,17.4,7.5c31.5,14,67.9,7.6,101.7,0.9c26.6-5.2,55.1-11.5,73.3-31.7"/>
<path class="st8" d="M411.9,614.7c1.4,5.3-0.2,10.9-2.3,16s-4.8,9.9-5.9,15.3c14.8,1.2,29.5,2.5,44.3,3.7"/>
</svg>
